<svg xmlns="http://www.w3.org/2000/svg" viewBox="0 0 1183 1229">
<g transform="translate(0,1229) scale(0.1,-0.1)" fill="currentColor" stroke="none">
<path d="M8077 12240 c-50 -40 -44 -136 12 -197 36 -40 51 -104 51 -222 0
-120 -24 -253 -58 -315 -47 -87 -228 -254 -351 -323 -221 -125 -451 -320 -524
-446 -16 -26 -40 -78 -54 -115 -50 -133 -55 -183 -60 -684 l-5 -467 -99 -82
c-287 -234 -321 -216 -419 215 -18 76 -65 255 -105 397 -89 313 -143 549 -190
821 -41 242 -75 379 -184 741 -106 350 -145 437 -195 437 -27 0 -46 -20 -75
-77 -63 -127 -150 -556 -256 -1278 -84 -570 -160 -1002 -180 -1023 -25 -27
-96 19 -265 172 -109 99 -226 179 -392 267 -166 89 -239 141 -315 223 -113
124 -155 246 -172 502 -17 265 -60 434 -157 624 -126 247 -324 417 -562 482
-106 29 -435 33 -495 6 -92 -42 -52 -93 181 -227 90 -53 190 -144 224 -208 77
-141 95 -378 63 -840 -21 -308 -17 -500 14 -617 50 -188 112 -276 413 -582
238 -243 325 -351 348 -432 32 -116 18 -205 -36 -218 -76 -19 -237 51 -554
241 -107 65 -271 162 -364 217 -163 95 -236 144 -446 298 -52 38 -140 96 -195
128 -55 33 -152 90 -215 128 -152 89 -283 178 -460 309 -201 149 -261 174
-296 120 -24 -36 -14 -102 29 -189 47 -94 210 -341 428 -646 439 -615 793
-1154 814 -1241 5 -20 2 -28 -12 -33 -10 -4 -133 -11 -273 -16 -355 -13 -462
-19 -640 -37 -382 -38 -519 12 -734 271 -136 163 -307 294 -480 369 -189 80
-318 77 -502 -13 -133 -65 -292 -229 -310 -319 -11 -55 13 -60 251 -58 174 2
220 -1 265 -15 94 -29 171 -123 355 -433 137 -229 195 -313 283 -406 195 -207
421 -290 903 -334 380 -34 440 -42 547 -77 151 -48 261 -231 183 -303 -12 -10
-49 -20 -98 -26 -172 -21 -634 -130 -908 -214 -518 -158 -1064 -305 -1405
-379 -91 -19 -186 -43 -212 -51 -93 -32 -126 -94 -70 -134 62 -44 268 -90
1082 -240 850 -158 1095 -216 1095 -261 0 -8 -29 -35 -65 -60 -133 -92 -388
-359 -481 -503 -21 -32 -49 -95 -64 -140 -70 -222 -206 -294 -621 -332 -381
-34 -567 -97 -709 -240 -79 -79 -125 -162 -155 -281 -23 -90 -44 -342 -37
-443 13 -187 59 -178 257 49 l122 140 272 0 c459 0 908 28 1006 61 88 30 176
104 460 384 186 183 269 258 305 276 47 22 61 24 216 24 173 0 212 -8 222 -45
7 -26 -15 -79 -60 -146 -60 -88 -173 -295 -360 -658 -90 -175 -188 -355 -217
-400 -68 -103 -100 -167 -177 -352 -94 -228 -145 -328 -197 -391 -118 -142
-203 -299 -210 -389 -4 -48 -2 -54 14 -54 89 1 646 374 1414 949 333 249 444
321 496 321 54 0 59 -17 56 -169 -4 -170 9 -238 83 -441 66 -184 105 -326 105
-386 0 -121 -83 -255 -408 -654 -105 -128 -219 -335 -272 -490 -53 -156 -64
-322 -31 -451 24 -93 99 -285 158 -404 86 -170 139 -221 204 -194 47 19 67 76
89 247 21 164 30 212 58 292 60 174 163 304 427 539 305 271 459 469 554 716
70 179 93 307 111 603 25 408 83 536 276 603 92 33 100 29 123 -48 35 -120
175 -778 340 -1598 110 -549 117 -598 150 -1070 10 -147 21 -178 63 -196 110
-46 170 104 293 739 117 606 158 803 200 967 61 242 73 300 84 396 11 99 44
181 90 224 30 28 33 29 59 15 14 -9 70 -68 123 -131 145 -173 223 -227 435
-304 252 -91 348 -188 389 -390 11 -51 20 -173 25 -335 6 -151 15 -281 24
-320 43 -194 148 -374 308 -526 123 -116 233 -184 367 -224 64 -20 88 -22 195
-17 308 13 348 104 123 280 -104 81 -166 151 -206 231 -64 128 -65 138 -66
606 -1 393 -3 434 -23 544 -64 344 -179 536 -444 740 -95 73 -156 147 -208
248 -48 96 -64 171 -57 268 11 142 58 240 116 240 56 0 607 -340 1296 -800
311 -208 716 -468 879 -567 148 -89 195 -103 216 -63 22 42 -16 122 -150 315
-128 184 -202 303 -285 455 -74 137 -136 235 -243 381 -173 237 -522 764 -522
787 0 13 18 14 138 6 75 -5 200 -8 277 -8 131 1 146 3 230 33 203 73 331 94
552 89 144 -3 163 -5 208 -27 51 -25 182 -151 415 -397 127 -133 188 -175 320
-216 64 -20 96 -23 220 -23 166 0 253 19 372 82 126 66 278 231 264 286 -9 39
-54 48 -266 57 -264 11 -320 30 -400 131 -23 29 -64 100 -92 159 -110 231
-134 276 -186 349 -106 150 -265 288 -398 347 -109 48 -304 83 -584 104 -274
20 -410 49 -506 105 -74 43 -155 144 -247 307 l-87 153 83 32 c126 48 369 105
1407 327 525 112 971 212 992 221 20 10 42 29 49 42 11 20 10 27 -7 51 -31 42
-98 69 -229 92 -66 11 -193 39 -283 61 -89 22 -388 85 -665 140 -276 55 -567
116 -647 135 -252 62 -390 113 -390 146 0 22 115 123 226 198 123 83 221 176
279 264 21 33 74 127 116 208 43 82 92 167 108 191 58 78 142 155 210 190 113
60 193 78 451 102 259 25 392 58 545 138 95 50 225 172 273 257 67 119 112
303 112 453 -1 143 -35 202 -100 167 -11 -6 -44 -44 -75 -85 -67 -89 -121
-135 -197 -170 -102 -47 -177 -55 -578 -65 -583 -15 -718 -33 -905 -123 -137
-67 -239 -151 -480 -395 -256 -261 -286 -282 -392 -282 -152 0 -373 40 -373
69 0 33 264 505 497 886 359 588 606 964 809 1232 136 179 163 244 119 293
-26 28 -44 26 -129 -20 -183 -96 -434 -270 -944 -652 -685 -515 -829 -595
-939 -528 -49 30 -42 64 21 95 29 14 63 88 76 165 22 140 9 292 -51 600 -52
266 -61 407 -31 506 32 105 72 162 302 434 273 323 319 488 246 882 -19 101
-32 142 -61 193 -98 175 -291 383 -381 409 -13 4 -30 -1 -47 -14z m358 -531
c52 -255 56 -291 41 -408 -25 -190 -47 -227 -265 -455 -250 -261 -330 -384
-353 -544 -11 -77 -9 -105 27 -395 46 -375 56 -611 31 -722 -21 -89 -88 -214
-171 -320 -100 -128 -194 -195 -275 -195 -32 0 -48 7 -79 35 -21 19 -44 49
-51 65 -15 35 -9 45 70 136 155 177 204 438 175 925 -30 519 13 649 331 992
250 271 378 430 420 522 25 54 40 152 49 310 7 117 15 189 21 183 2 -3 15 -60
29 -129z m-131 -61 c13 -108 -38 -258 -142 -418 -89 -136 -143 -201 -332 -395
-308 -317 -360 -424 -360 -737 0 -79 5 -192 11 -253 6 -60 12 -184 12 -275 2
-196 -13 -261 -95 -430 -64 -132 -152 -226 -237 -255 -78 -26 -179 -17 -264
22 -135 64 -126 106 53 233 116 82 209 179 245 255 58 123 70 299 35 525 -47
306 -53 372 -41 432 15 68 85 216 149 313 97 145 359 380 504 450 85 42 239
172 288 245 50 74 70 116 115 238 21 56 41 102 45 102 4 0 11 -24 14 -52z
m-4624 -28 c73 -48 202 -174 248 -244 69 -106 127 -324 177 -669 38 -265 73
-422 104 -465 83 -115 330 -278 526 -347 52 -19 115 -48 140 -65 108 -74 225
-223 300 -383 52 -110 76 -196 78 -286 3 -87 -8 -134 -39 -171 -24 -27 -31
-30 -87 -30 -124 0 -164 41 -227 235 -85 260 -169 355 -450 505 -177 95 -267
158 -344 241 -100 108 -154 229 -186 419 -7 36 -15 254 -19 485 -8 419 -16
509 -42 463 -29 -53 -37 -897 -9 -1056 40 -234 228 -454 549 -642 240 -141
350 -296 396 -558 23 -129 -1 -179 -119 -251 -109 -65 -176 -59 -214 20 -11
24 -30 88 -41 142 -37 176 -76 233 -355 512 -221 221 -344 363 -381 440 -77
156 -83 461 -19 910 41 285 28 461 -51 697 -19 57 -35 111 -35 121 0 28 32 20
100 -23z m2180 -425 c25 -300 42 -1842 21 -2030 l-6 -59 -44 -13 c-24 -7 -93
-19 -153 -28 -208 -29 -213 -26 -205 115 3 52 24 183 46 290 46 227 120 685
191 1190 27 195 56 400 64 456 16 109 53 221 67 207 5 -5 13 -62 19 -128z
m245 -310 c35 -177 124 -559 198 -855 173 -685 218 -901 197 -941 -21 -39
-234 -51 -344 -19 -80 24 -96 64 -116 290 -25 279 -43 1704 -23 1845 5 43 7
46 15 24 5 -13 38 -168 73 -344z m-3562 -1572 c851 -862 989 -1005 1071 -1116
27 -35 28 -41 24 -121 -7 -143 -73 -242 -158 -240 -117 3 -269 168 -481 522
-113 189 -377 588 -574 867 -210 299 -345 506 -345 530 0 22 71 -46 463 -442z
m6826 250 c-107 -109 -244 -252 -305 -318 -150 -165 -600 -621 -762 -771 -166
-155 -228 -204 -257 -204 -42 0 -178 77 -232 131 -69 68 -70 91 -5 151 68 64
128 105 412 288 288 184 284 182 770 526 366 259 561 394 570 394 3 0 -83 -89
-191 -197z m-6899 37 c42 -22 1398 -833 1495 -895 163 -104 200 -147 171 -202
-35 -70 -203 -197 -293 -224 -40 -11 -45 -10 -80 14 -114 79 -426 371 -919
859 -373 371 -463 468 -429 468 9 0 33 -9 55 -20z m6995 -122 c-20 -24 -73
-106 -117 -183 -120 -209 -322 -530 -504 -802 -176 -263 -230 -350 -320 -517
-33 -60 -77 -130 -99 -154 l-41 -45 -38 33 c-26 24 -57 73 -103 166 l-65 133
363 408 c506 568 616 690 754 832 116 120 193 186 203 176 3 -2 -12 -24 -33
-47z m-3320 -558 c451 -39 845 -161 1195 -370 69 -41 139 -82 157 -91 112 -58
488 -405 627 -579 500 -628 712 -1433 586 -2219 -187 -1160 -1072 -2082 -2220
-2311 -206 -41 -327 -53 -550 -53 -223 0 -344 12 -550 53 -387 77 -697 209
-1050 445 -296 198 -420 311 -631 575 -204 256 -269 356 -328 505 -45 111 -79
159 -129 183 l-37 17 4 106 c3 95 0 114 -24 185 -18 52 -39 159 -62 319 -33
226 -34 251 -29 430 9 339 74 732 162 977 95 263 417 784 614 991 173 183 434
364 765 529 496 249 994 351 1500 308z m-5455 -331 c75 -17 202 -83 259 -134
78 -71 101 -113 116 -214 17 -111 31 -164 62 -226 92 -182 319 -389 493 -447
62 -21 81 -22 460 -23 614 -1 745 -30 920 -207 146 -147 163 -192 108 -298
-27 -53 -39 -67 -65 -74 -47 -13 -116 25 -237 129 -54 47 -122 96 -150 110
-61 30 -161 44 -308 45 -215 0 -558 58 -747 126 -142 51 -232 106 -337 209
-104 103 -162 185 -276 393 -96 175 -150 254 -237 345 -80 84 -142 124 -211
137 -29 6 -59 15 -67 21 -28 24 -6 81 42 107 25 14 116 15 175 1z m10802 -202
c11 -18 11 -19 -23 -70 -68 -104 -356 -299 -494 -336 -98 -26 -235 -42 -417
-50 -218 -10 -263 -22 -341 -91 -97 -85 -269 -318 -358 -485 -122 -230 -281
-387 -509 -505 -154 -79 -237 -103 -355 -104 -88 -1 -104 2 -138 22 -21 13
-45 38 -54 55 -20 38 -21 127 -4 181 17 50 63 70 199 86 174 19 257 48 359
123 75 56 133 125 252 299 260 381 451 511 806 547 59 6 158 11 219 11 175 1
326 36 313 73 -8 25 -74 29 -267 18 -634 -38 -856 -144 -1120 -533 -100 -145
-231 -283 -308 -322 -102 -52 -190 -68 -377 -70 -210 -1 -222 3 -275 108 -44
89 -48 158 -10 187 42 32 138 41 360 34 l205 -7 235 243 c245 253 344 341 439
388 106 53 310 109 501 137 116 17 280 16 650 -2 151 -8 243 5 331 45 35 16
75 31 89 34 35 7 83 -1 92 -16z m-10167 -325 c17 -8 71 -39 122 -69 50 -29
122 -66 160 -80 63 -25 79 -27 208 -27 156 0 313 20 513 64 105 24 157 30 248
30 296 0 631 -133 720 -286 24 -41 26 -52 22 -125 -4 -59 -10 -87 -25 -106
-43 -59 -105 -49 -336 56 -275 124 -293 126 -700 105 -351 -19 -467 -12 -604
35 -161 55 -341 188 -392 290 -20 39 -29 120 -14 134 8 8 35 1 78 -21z m1625
-1427 c21 -25 35 -223 24 -330 -19 -171 -47 -188 -368 -220 -399 -39 -1039
-67 -1556 -69 -465 -1 -539 8 -381 49 35 9 140 32 235 51 166 33 641 158 942
248 519 155 1001 285 1060 285 17 1 37 -6 44 -14z m6905 -285 c653 -155 828
-189 1055 -200 174 -9 290 -25 290 -41 0 -41 -179 -52 -715 -46 -400 4 -1574
36 -1583 43 -3 2 -31 420 -32 470 0 20 17 17 368 -72 202 -52 480 -121 617
-154z m-7035 -399 c36 -7 75 -18 87 -26 51 -34 113 -241 96 -326 -14 -70 -43
-84 -171 -82 -143 2 -309 32 -842 152 -351 78 -490 105 -660 126 -240 30 -428
60 -479 76 -77 26 33 41 449 64 162 9 365 20 450 25 219 12 989 5 1070 -9z
m7975 8 c138 0 139 0 95 -15 -25 -8 -182 -42 -350 -75 -399 -78 -1041 -208
-1305 -264 -131 -28 -241 -46 -293 -48 -111 -3 -115 2 -110 143 4 133 26 178
102 215 45 22 72 26 231 35 268 16 370 17 955 13 294 -3 598 -4 675 -4z
m-7870 -604 c123 -43 185 -134 136 -197 -27 -34 -76 -50 -288 -93 -289 -59
-395 -107 -511 -231 -37 -38 -96 -119 -132 -178 -142 -236 -247 -363 -371
-446 -84 -58 -168 -92 -328 -135 -152 -40 -214 -68 -209 -93 3 -14 15 -17 73
-16 116 2 356 74 513 153 88 45 171 143 370 436 56 83 123 174 149 203 42 47
58 57 134 82 177 59 540 130 666 130 71 0 71 0 82 -31 32 -93 2 -181 -89 -261
-115 -101 -221 -145 -379 -158 -113 -9 -202 -35 -286 -85 -70 -41 -195 -164
-298 -295 -195 -246 -318 -329 -537 -361 -82 -12 -370 -9 -756 7 -200 9 -259
-2 -399 -71 -60 -29 -127 -57 -147 -60 -34 -7 -39 -5 -48 20 -12 32 0 86 37
160 95 187 309 351 518 398 39 9 172 23 295 32 124 9 258 23 300 31 190 40
271 123 385 400 60 144 86 185 181 284 137 142 310 253 522 335 190 73 294 83
417 40z m6001 -97 c26 -18 77 -67 113 -108 35 -41 115 -132 178 -202 163 -183
172 -187 578 -233 632 -72 810 -151 1010 -452 102 -152 262 -420 327 -549 l52
-102 71 -4 c108 -7 163 -46 136 -97 -39 -73 -315 -46 -510 50 -99 49 -210 150
-353 321 -113 136 -175 190 -263 233 -88 42 -152 55 -266 55 -117 0 -208 -19
-404 -85 -245 -82 -276 -89 -400 -88 -121 0 -230 26 -352 83 -144 67 -310 213
-370 327 -64 120 -32 231 82 284 79 37 144 19 231 -62 116 -108 286 -203 421
-235 58 -14 97 -15 263 -8 335 15 593 11 682 -9 153 -36 265 -95 371 -196 82
-77 134 -148 234 -313 172 -287 253 -357 347 -298 l36 22 -137 146 c-75 81
-193 217 -263 302 -227 277 -372 386 -605 451 -75 21 -107 23 -500 29 -401 6
-422 7 -475 28 -78 31 -140 72 -243 161 -158 136 -230 241 -230 335 1 110 94
246 169 246 12 0 43 -15 70 -32z m-5547 -689 c76 -46 203 -200 285 -347 l47
-82 -133 -158 c-264 -311 -687 -831 -801 -983 -15 -20 -25 -43 -22 -51 4 -9
-6 -29 -21 -47 -14 -18 -24 -34 -22 -37 5 -4 174 174 573 605 99 107 193 209
209 228 42 50 266 252 297 269 31 16 70 7 132 -30 92 -54 197 -181 197 -239 0
-42 -72 -107 -236 -212 -162 -104 -383 -255 -539 -369 -156 -114 -488 -336
-570 -381 -39 -22 -109 -75 -158 -122 -99 -93 -202 -170 -290 -214 -143 -73
-152 -1 -32 259 63 136 73 156 523 998 188 352 345 654 348 672 10 47 -2 75
-41 100 -40 26 -38 42 6 42 45 0 90 23 148 74 28 25 55 46 59 46 4 0 22 -9 41
-21z m4995 -300 c25 -28 77 -101 115 -163 68 -109 109 -158 151 -180 13 -6 29
-32 39 -62 9 -28 36 -84 60 -125 67 -113 345 -523 552 -814 237 -333 284 -402
320 -478 55 -118 33 -164 -63 -126 -147 57 -602 343 -752 472 -32 28 -207 153
-390 279 -613 422 -787 551 -794 592 -9 43 183 184 262 193 82 10 162 -50 528
-396 386 -365 693 -631 729 -631 25 0 -42 73 -400 435 -507 512 -681 701 -681
740 0 58 210 315 258 315 12 0 40 -22 66 -51z m-3956 -694 c49 -21 80 -51 87
-86 8 -34 -14 -115 -57 -214 -100 -231 -130 -347 -148 -567 -12 -139 1 -285
32 -386 16 -51 19 -82 15 -134 -15 -182 -184 -532 -359 -743 -245 -296 -293
-365 -255 -365 17 0 236 226 343 355 117 140 176 228 236 349 104 213 120 314
124 756 2 312 5 353 23 424 52 198 184 394 276 412 129 24 325 -97 325 -202 0
-37 -27 -64 -90 -91 -88 -38 -159 -148 -200 -308 -23 -89 -43 -254 -60 -480
-29 -400 -142 -633 -460 -940 -413 -400 -510 -510 -621 -705 -35 -61 -76 -126
-90 -143 l-25 -30 -28 35 c-43 57 -59 156 -53 328 11 294 69 418 357 765 239
288 320 449 321 634 0 134 -30 239 -117 412 -57 114 -77 204 -77 349 0 309
129 511 366 575 68 18 90 18 135 0z m2911 -107 c46 -48 63 -145 86 -473 l16
-230 147 -139 c383 -362 453 -457 497 -665 21 -101 35 -280 35 -451 0 -211 17
-558 35 -714 11 -91 25 -157 50 -229 56 -160 46 -183 -53 -133 -123 62 -280
207 -362 332 -79 122 -101 213 -120 514 -14 217 -35 354 -70 465 -34 104 -71
167 -134 227 -48 47 -63 55 -266 151 -445 212 -600 435 -600 861 0 200 14 228
135 272 84 30 125 31 153 2 30 -33 38 -59 66 -220 62 -349 169 -516 460 -710
239 -160 314 -252 393 -478 27 -77 31 -102 37 -260 4 -96 11 -200 16 -230 6
-46 5 -58 -11 -75 -31 -35 -39 -73 -39 -198 0 -131 18 -240 48 -291 17 -30 83
-75 110 -76 26 0 23 31 -7 76 -54 82 -67 167 -62 414 10 499 8 579 -17 654
-66 196 -197 369 -389 512 -189 141 -250 206 -312 331 -55 111 -91 298 -91
477 0 114 13 156 69 219 79 87 140 109 180 65z m-1728 -308 c83 -25 129 -56
152 -101 33 -69 58 -306 77 -754 18 -416 51 -863 67 -888 28 -45 41 163 53
838 10 531 23 851 34 863 19 18 133 34 284 39 153 5 172 4 172 -10 0 -44 -44
-307 -75 -450 -20 -88 -75 -319 -124 -511 -105 -415 -175 -722 -197 -872 -23
-150 -122 -664 -134 -691 -5 -13 -16 -23 -24 -23 -26 0 -31 26 -116 540 -93
561 -190 1069 -290 1522 -73 325 -86 372 -157 544 -5 14 184 -17 278 -46z"/>
<path d="M710 4016 c-30 -7 -71 -20 -90 -30 -43 -23 -123 -86 -116 -93 2 -3
32 4 65 16 67 23 256 59 456 87 123 18 127 19 80 25 -82 12 -336 8 -395 -5z"/>
<path d="M2614 2828 c-143 -146 -256 -288 -229 -288 2 0 40 23 84 50 51 33 81
59 85 74 3 13 37 59 75 104 38 44 67 83 64 86 -3 3 6 24 21 46 14 22 23 40 18
40 -4 0 -58 -51 -118 -112z"/>
<path d="M9164 2785 c-10 -25 17 -75 48 -91 35 -18 48 -11 48 25 0 54 -80 108
-96 66z"/>
</g>
</svg>
